<?xml version="1.0" encoding="UTF-8"?>
<!DOCTYPE svg  PUBLIC '-//W3C//DTD SVG 1.1//EN'  'http://www.w3.org/Graphics/SVG/1.1/DTD/svg11.dtd'>
<svg width="624pt" height="476pt" viewBox="0.00 0.00 624.14 476.00" xmlns="http://www.w3.org/2000/svg">
<g class="graph" transform="scale(1) translate(4 472)">
<title>%0</title>
<polygon points="-4 4 -4 -472 620.14 -472 620.14 4" fill="#fff" stroke="transparent"/>
<g class="node">
<title>2</title>
<ellipse cx="537.26" cy="-306" rx="78.751" ry="18" fill="none" stroke="#2a7b9a"/>
<text x="537.2629" y="-301.8" fill="#000000" font-family="Times,serif" font-size="14" text-anchor="middle">TwoPlayer.Game</text>
</g>
<g class="node">
<title>10</title>
<ellipse cx="377.26" cy="-234" rx="74.137" ry="18" fill="none" stroke="#2a7b9a"/>
<text x="377.2629" y="-229.8" fill="#000000" font-family="Times,serif" font-size="14" text-anchor="middle">MatchupCreator</text>
</g>
<g class="edge">
<title>2->10</title>
<path d="m501.36-289.84c-23.529 10.588-54.458 24.506-79.552 35.798" fill="none" stroke="#3d3d6a"/>
<polygon points="423.05 -250.77 412.5 -249.86 420.18 -257.15" fill="#3d3d6a" stroke="#3d3d6a"/>
</g>
<g class="node">
<title>15</title>
<ellipse cx="229.26" cy="-234" rx="56.203" ry="18" fill="none" stroke="#2a7b9a"/>
<text x="229.2629" y="-229.8" fill="#000000" font-family="Times,serif" font-size="14" text-anchor="middle">Component</text>
</g>
<g class="edge">
<title>2->15</title>
<path d="m478.64-293.86c-49.342 10.432-121.68 26.222-184.37 41.856-4.2694 1.0648-8.686 2.2048-13.114 3.3751" fill="none" stroke="#3d3d6a"/>
<polygon points="282.05 -245.24 271.49 -246.03 280.24 -252" fill="#3d3d6a" stroke="#3d3d6a"/>
</g>
<g class="node">
<title>17</title>
<ellipse cx="302.26" cy="-90" rx="34.786" ry="18" fill="none" stroke="#2a7b9a"/>
<text x="302.2629" y="-85.8" fill="#000000" font-family="Times,serif" font-size="14" text-anchor="middle">Bottle</text>
</g>
<g class="edge">
<title>2->17</title>
<path d="m533.16-287.91c-8.4474 33.212-30.882 104.13-75.896 143.91-31.158 27.53-77.149 41.22-110.94 47.903" fill="none" stroke="#3d3d6a"/>
<polygon points="346.72 -92.612 336.25 -94.24 345.45 -99.496" fill="#3d3d6a" stroke="#3d3d6a"/>
</g>
<g class="node">
<title>3</title>
<ellipse cx="377.26" cy="-378" rx="53.309" ry="18" fill="none" stroke="#2a7b9a"/>
<text x="377.2629" y="-373.8" fill="#000000" font-family="Times,serif" font-size="14" text-anchor="middle">TwoPlayer</text>
</g>
<g class="edge">
<title>3->2</title>
<path d="m409.64-363.43c23.666 10.65 56.074 25.233 82.309 37.039" fill="none" stroke="#3d3d6a"/>
<polygon points="493.63 -329.47 501.31 -322.18 490.75 -323.09" fill="#3d3d6a" stroke="#3d3d6a"/>
</g>
<g class="node">
<title>6</title>
<ellipse cx="325.26" cy="-306" rx="76.968" ry="18" fill="none" stroke="#2a7b9a"/>
<text x="325.2629" y="-301.8" fill="#000000" font-family="Times,serif" font-size="14" text-anchor="middle">OnePlayer.Menu</text>
</g>
<g class="edge">
<title>3->6</title>
<path d="m364.41-360.2c-6.125 8.4808-13.571 18.791-20.318 28.133" fill="none" stroke="#3d3d6a"/>
<polygon points="346.84 -329.9 338.15 -323.84 341.17 -334" fill="#3d3d6a" stroke="#3d3d6a"/>
</g>
<g class="edge">
<title>3->15</title>
<path d="m393.06-360.69c15.564 19.224 34.783 50.469 18.199 72.689-2.0299 2.7196-76.821 24.303-129.88 39.344" fill="none" stroke="#3d3d6a"/>
<polygon points="282.32 -245.29 271.75 -245.93 280.42 -252.02" fill="#3d3d6a" stroke="#3d3d6a"/>
</g>
<g class="node">
<title>5</title>
<ellipse cx="278.26" cy="-18" rx="64.849" ry="18" fill="none" stroke="#2a7b9a"/>
<text x="278.2629" y="-13.8" fill="#000000" font-family="Times,serif" font-size="14" text-anchor="middle">RandomExtra</text>
</g>
<g class="node">
<title>7</title>
<ellipse cx="77.263" cy="-306" rx="77.026" ry="18" fill="none" stroke="#2a7b9a"/>
<text x="77.2629" y="-301.8" fill="#000000" font-family="Times,serif" font-size="14" text-anchor="middle">OnePlayer.Game</text>
</g>
<g class="node">
<title>14</title>
<ellipse cx="294.26" cy="-162" rx="44.101" ry="18" fill="none" stroke="#2a7b9a"/>
<text x="294.2629" y="-157.8" fill="#000000" font-family="Times,serif" font-size="14" text-anchor="middle">Controls</text>
</g>
<g class="edge">
<title>7->14</title>
<path d="m95.46-288.19c10.566 10.436 24.066 23.936 35.802 36.193 15.011 15.678 15.225 23.543 33 36 14.646 10.264 55.037 26.442 86.948 38.417" fill="none" stroke="#3d3d6a"/>
<polygon points="252.65 -180.78 260.8 -174.01 250.21 -174.22" fill="#3d3d6a" stroke="#3d3d6a"/>
</g>
<g class="edge">
<title>7->15</title>
<path d="m111.37-289.84c22.795 10.798 52.902 25.059 76.984 36.466" fill="none" stroke="#3d3d6a"/>
<polygon points="190.06 -256.44 197.6 -249 187.06 -250.12" fill="#3d3d6a" stroke="#3d3d6a"/>
</g>
<g class="node">
<title>16</title>
<ellipse cx="168.26" cy="-162" rx="63.697" ry="18" fill="none" stroke="#2a7b9a"/>
<text x="168.2629" y="-157.8" fill="#000000" font-family="Times,serif" font-size="14" text-anchor="middle">BottleCreator</text>
</g>
<g class="edge">
<title>7->16</title>
<path d="m87.706-287.87c10.654 18.316 27.81 47.338 43.557 71.875 5.8925 9.1818 12.569 19.071 18.612 27.846" fill="none" stroke="#3d3d6a"/>
<polygon points="152.83 -190.03 155.66 -179.82 147.08 -186.04" fill="#3d3d6a" stroke="#3d3d6a"/>
</g>
<g class="edge">
<title>7->17</title>
<path d="m73.316-287.88c-6.0291 32.941-13.413 103 21.947 143.88 10.83 12.521 106.98 33.794 164.36 45.555" fill="none" stroke="#3d3d6a"/>
<polygon points="260.41 -101.86 269.51 -96.433 259.01 -94.997" fill="#3d3d6a" stroke="#3d3d6a"/>
</g>
<g class="node">
<title>8</title>
<ellipse cx="140.26" cy="-378" rx="51.584" ry="18" fill="none" stroke="#2a7b9a"/>
<text x="140.2629" y="-373.8" fill="#000000" font-family="Times,serif" font-size="14" text-anchor="middle">OnePlayer</text>
</g>
<g class="edge">
<title>8->6</title>
<path d="m175.06-364.46c28.456 11.075 69.044 26.871 100.86 39.252" fill="none" stroke="#3d3d6a"/>
<polygon points="277.43 -328.37 285.48 -321.48 274.89 -321.85" fill="#3d3d6a" stroke="#3d3d6a"/>
</g>
<g class="edge">
<title>8->7</title>
<path d="m125.01-360.57c-7.6246 8.7138-16.998 19.427-25.416 29.046" fill="none" stroke="#3d3d6a"/>
<polygon points="102.03 -328.99 92.811 -323.77 96.762 -333.6" fill="#3d3d6a" stroke="#3d3d6a"/>
</g>
<g class="edge">
<title>8->15</title>
<path d="m151.18-360.34c15.413 24.938 43.679 70.672 61.643 99.738" fill="none" stroke="#3d3d6a"/>
<polygon points="215.98 -262.15 218.26 -251.8 210.03 -258.47" fill="#3d3d6a" stroke="#3d3d6a"/>
</g>
<g class="node">
<title>9</title>
<ellipse cx="520.26" cy="-378" rx="33.629" ry="18" fill="none" stroke="#2a7b9a"/>
<text x="520.2629" y="-373.8" fill="#000000" font-family="Times,serif" font-size="14" text-anchor="middle">Menu</text>
</g>
<g class="edge">
<title>10->14</title>
<path d="m357.17-216.57c-10.837 9.4005-24.355 21.128-36.08 31.299" fill="none" stroke="#3d3d6a"/>
<polygon points="323.16 -182.44 313.31 -178.53 318.57 -187.72" fill="#3d3d6a" stroke="#3d3d6a"/>
</g>
<g class="edge">
<title>10->16</title>
<path d="m334.46-219.26c-33.622 11.583-80.52 27.739-115.93 39.937" fill="none" stroke="#3d3d6a"/>
<polygon points="219.47 -175.94 208.87 -175.99 217.19 -182.56" fill="#3d3d6a" stroke="#3d3d6a"/>
</g>
<g class="edge">
<title>10->17</title>
<path d="m373.35-215.94c-4.5389 18.778-13.103 48.627-26.088 71.936-5.911 10.611-14.028 21.134-21.742 30.033" fill="none" stroke="#3d3d6a"/>
<polygon points="327.91 -111.39 318.62 -106.3 322.71 -116.07" fill="#3d3d6a" stroke="#3d3d6a"/>
</g>
<g class="node">
<title>18</title>
<ellipse cx="421.26" cy="-162" rx="27" ry="18" fill="none" stroke="#2a7b9a"/>
<text x="421.2629" y="-157.8" fill="#000000" font-family="Times,serif" font-size="14" text-anchor="middle">Bot</text>
</g>
<g class="edge">
<title>10->18</title>
<path d="m388.37-215.83c5.2476 8.587 11.602 18.985 17.321 28.344" fill="none" stroke="#3d3d6a"/>
<polygon points="408.69 -189.28 410.92 -178.93 402.72 -185.63" fill="#3d3d6a" stroke="#3d3d6a"/>
</g>
<g class="node">
<title>11</title>
<ellipse cx="377.26" cy="-450" rx="31.339" ry="18" fill="none" stroke="#2a7b9a"/>
<text x="377.2629" y="-445.8" fill="#000000" font-family="Times,serif" font-size="14" text-anchor="middle">Main</text>
</g>
<g class="edge">
<title>11->2</title>
<path d="m394.81-435.06c12.51 10.735 29.666 25.625 44.458 39.063 17.22 15.643 20.908 20.217 38 36 10.584 9.7733 22.342 20.405 32.626 29.629" fill="none" stroke="#3d3d6a"/>
<polygon points="512.3 -332.91 517.42 -323.63 507.64 -327.69" fill="#3d3d6a" stroke="#3d3d6a"/>
</g>
<g class="edge">
<title>11->3</title>
<path d="m377.26-431.83v25.415" fill="none" stroke="#3d3d6a"/>
<polygon points="380.76 -406.41 377.26 -396.41 373.76 -406.41" fill="#3d3d6a" stroke="#3d3d6a"/>
</g>
<g class="edge">
<title>11->8</title>
<path d="m349.15-441.46c-39.461 11.988-111.84 33.978-160.17 48.659" fill="none" stroke="#3d3d6a"/>
<polygon points="189.93 -389.43 179.35 -389.87 187.9 -396.13" fill="#3d3d6a" stroke="#3d3d6a"/>
</g>
<g class="edge">
<title>11->9</title>
<path d="m400.88-438.11c23.315 11.739 59.203 29.808 85.546 43.072" fill="none" stroke="#3d3d6a"/>
<polygon points="488.3 -398.01 495.65 -390.39 485.15 -391.76" fill="#3d3d6a" stroke="#3d3d6a"/>
</g>
<g class="edge">
<title>11->15</title>
<path d="m354.87-437.1c-31.944 19.766-89.604 60.817-115.61 113.1-9.481 19.062-11.73 43.142-11.744 61.596" fill="none" stroke="#3d3d6a"/>
<polygon points="231.02 -262.34 227.73 -252.27 224.02 -262.19" fill="#3d3d6a" stroke="#3d3d6a"/>
</g>
<g class="node">
<title>12</title>
<ellipse cx="389.26" cy="-18" rx="28.972" ry="18" fill="none" stroke="#2a7b9a"/>
<text x="389.2629" y="-13.8" fill="#000000" font-family="Times,serif" font-size="14" text-anchor="middle">Grid</text>
</g>
<g class="edge">
<title>14->17</title>
<path d="m296.28-143.83c0.8556 7.7004 1.873 16.857 2.8239 25.415" fill="none" stroke="#3d3d6a"/>
<polygon points="302.59 -118.74 300.22 -108.41 295.63 -117.97" fill="#3d3d6a" stroke="#3d3d6a"/>
</g>
<g class="edge">
<title>16->12</title>
<path d="m182.11-144.21c16.33 19.947 45.198 52.127 76.155 72.213 37.529 24.351 52.958 18.198 94 36 1.622 0.7035 3.2761 1.4393 4.9412 2.1945" fill="none" stroke="#3d3d6a"/>
<polygon points="359.14 -36.766 366.71 -29.358 356.17 -30.426" fill="#3d3d6a" stroke="#3d3d6a"/>
</g>
<g class="edge">
<title>16->17</title>
<path d="m198-146.02c21.05 11.31 49.294 26.486 71.076 38.19" fill="none" stroke="#3d3d6a"/>
<polygon points="270.82 -110.87 277.98 -103.05 267.51 -104.7" fill="#3d3d6a" stroke="#3d3d6a"/>
</g>
<g class="edge">
<title>17->5</title>
<path d="m296.33-72.202c-2.6626 7.9876-5.8659 17.598-8.8312 26.494" fill="none" stroke="#3d3d6a"/>
<polygon points="290.78 -44.473 284.29 -36.093 284.14 -46.687" fill="#3d3d6a" stroke="#3d3d6a"/>
</g>
<g class="edge">
<title>17->12</title>
<path d="m320.71-74.731c12.592 10.421 29.432 24.358 43.27 35.81" fill="none" stroke="#3d3d6a"/>
<polygon points="366.26 -41.583 371.73 -32.511 361.79 -36.19" fill="#3d3d6a" stroke="#3d3d6a"/>
</g>
<g class="edge">
<title>18->12</title>
<path d="m417.27-144.05c-5.4613 24.576-15.323 68.953-21.768 97.956" fill="none" stroke="#3d3d6a"/>
<polygon points="398.89 -45.175 393.3 -36.173 392.05 -46.694" fill="#3d3d6a" stroke="#3d3d6a"/>
</g>
<g class="edge">
<title>18->17</title>
<path d="m401.08-149.79c-18.451 11.164-46.031 27.851-67.369 40.761" fill="none" stroke="#3d3d6a"/>
<polygon points="335.36 -105.93 324.99 -103.75 331.73 -111.92" fill="#3d3d6a" stroke="#3d3d6a"/>
</g>
</g>
</svg>
