<svg width="524" height="476pt" viewBox="0 0 393.39 476" xmlns="http://www.w3.org/2000/svg"><g class="graph" transform="translate(4 472)"><path fill="#fff" stroke="transparent" d="M-4 4v-476h393.39V4H-4z"/><g class="node"><ellipse fill="none" stroke="#2a7b9a" cx="280.556" cy="-306" rx="78.751" ry="18"/><text text-anchor="middle" x="280.556" y="-301.8" font-family="Times,serif" font-size="14">TwoPlayer.Game</text></g><g class="node"><ellipse fill="none" stroke="#2a7b9a" cx="277.556" cy="-234" rx="74.137" ry="18"/><text text-anchor="middle" x="277.556" y="-229.8" font-family="Times,serif" font-size="14">MatchupCreator</text></g><g class="edge"><path fill="none" stroke="#3d3d6a" d="M279.799-287.831l-1.06 25.414"/><path fill="#3d3d6a" stroke="#3d3d6a" d="M282.236-262.259l-3.913 9.846-3.08-10.137 6.993.291z"/></g><g class="node"><ellipse fill="none" stroke="#2a7b9a" cx="221.556" cy="-90" rx="34.786" ry="18"/><text text-anchor="middle" x="221.556" y="-85.8" font-family="Times,serif" font-size="14">Bottle</text></g><g class="edge"><path fill="none" stroke="#3d3d6a" d="M317.554-289.908c15.874 8.846 33.03 21.418 43.002 37.908 24.905 41.187 35.548 68.532 8 108-12.357 17.703-65.952 34.223-104.867 44.215"/><path fill="#3d3d6a" stroke="#3d3d6a" d="M264.199-96.305l-10.551-.962 8.848-5.828 1.703 6.79z"/></g><g class="node"><ellipse fill="none" stroke="#2a7b9a" cx="202.556" cy="-378" rx="53.309" ry="18"/><text text-anchor="middle" x="202.556" y="-373.8" font-family="Times,serif" font-size="14">TwoPlayer</text></g><g class="edge"><path fill="none" stroke="#3d3d6a" d="M221.04-360.937l32.786 30.264"/><path fill="#3d3d6a" stroke="#3d3d6a" d="M256.415-333.047l4.974 9.355-9.722-4.211 4.748-5.144z"/></g><g class="node"><ellipse fill="none" stroke="#2a7b9a" cx="79.556" cy="-234" rx="77.026" ry="18"/><text text-anchor="middle" x="79.556" y="-229.8" font-family="Times,serif" font-size="14">OnePlayer.Game</text></g><g class="node"><ellipse fill="none" stroke="#2a7b9a" cx="205.556" cy="-162" rx="44.101" ry="18"/><text text-anchor="middle" x="205.556" y="-157.8" font-family="Times,serif" font-size="14">Controls</text></g><g class="edge"><path fill="none" stroke="#3d3d6a" d="M108.78-217.3l61.842 35.338"/><path fill="#3d3d6a" stroke="#3d3d6a" d="M172.54-184.897l6.947 8-10.42-1.922 3.474-6.078z"/></g><g class="node"><ellipse fill="none" stroke="#2a7b9a" cx="79.556" cy="-162" rx="63.697" ry="18"/><text text-anchor="middle" x="79.556" y="-157.8" font-family="Times,serif" font-size="14">BottleCreator</text></g><g class="edge"><path fill="none" stroke="#3d3d6a" d="M79.556-215.831v25.414"/><path fill="#3d3d6a" stroke="#3d3d6a" d="M83.056-190.413l-3.5 10-3.5-10h7z"/></g><g class="edge"><path fill="none" stroke="#3d3d6a" d="M44.941-217.633C30.277-208.73 14.717-196.188 6.556-180c-7.203 14.287-9.84 23.383 0 36 20.777 26.641 114.183 42.14 170.823 49.248"/><path fill="#3d3d6a" stroke="#3d3d6a" d="M177.996-98.203l9.505 4.681-10.35 2.268.845-6.949z"/></g><g class="node"><ellipse fill="none" stroke="#2a7b9a" cx="79.556" cy="-378" rx="51.584" ry="18"/><text text-anchor="middle" x="79.556" y="-373.8" font-family="Times,serif" font-size="14">OnePlayer</text></g><g class="edge"><path fill="none" stroke="#3d3d6a" d="M79.556-359.762v97.408"/><path fill="#3d3d6a" stroke="#3d3d6a" d="M83.056-262.09l-3.5 10-3.5-10h7z"/></g><g class="node"><ellipse fill="none" stroke="#2a7b9a" cx="345.556" cy="-378" rx="33.629" ry="18"/><text text-anchor="middle" x="345.556" y="-373.8" font-family="Times,serif" font-size="14">Menu</text></g><g class="edge"><path fill="none" stroke="#3d3d6a" d="M259.758-216.202l-29.922 29.922"/><path fill="#3d3d6a" stroke="#3d3d6a" d="M232.199-183.693l-9.546 4.596 4.596-9.546 4.95 4.95z"/></g><g class="edge"><path fill="none" stroke="#3d3d6a" d="M236.048-218.906L128.13-179.663"/><path fill="#3d3d6a" stroke="#3d3d6a" d="M129.245-176.345l-10.594.129 8.202-6.707 2.392 6.578z"/></g><g class="edge"><path fill="none" stroke="#3d3d6a" d="M275.827-215.782c-2.248 18.642-7.155 48.145-17.271 71.782-4.293 10.03-10.57 20.131-16.738 28.84"/><path fill="#3d3d6a" stroke="#3d3d6a" d="M244.523-112.93l-8.76 5.96 3.13-10.122 5.63 4.162z"/></g><g class="node"><ellipse fill="none" stroke="#2a7b9a" cx="332.556" cy="-162" rx="27" ry="18"/><text text-anchor="middle" x="332.556" y="-157.8" font-family="Times,serif" font-size="14">Bot</text></g><g class="edge"><path fill="none" stroke="#3d3d6a" d="M291.151-216.202l22.838 29.896"/><path fill="#3d3d6a" stroke="#3d3d6a" d="M316.954-188.19l3.289 10.071-8.852-5.822 5.563-4.25z"/></g><g class="node"><ellipse fill="none" stroke="#2a7b9a" cx="242.556" cy="-450" rx="31.339" ry="18"/><text text-anchor="middle" x="242.556" y="-445.8" font-family="Times,serif" font-size="14">Main</text></g><g class="edge"><path fill="none" stroke="#3d3d6a" d="M250.857-432.336c4.6 10.388 10.1 23.888 13.699 36.336 5.867 20.296 9.959 43.821 12.535 61.729"/><path fill="#3d3d6a" stroke="#3d3d6a" d="M280.583-334.567l-2.115 10.381-4.82-9.434 6.935-.947z"/></g><g class="edge"><path fill="none" stroke="#3d3d6a" d="M232.873-432.57l-15.493 27.886"/><path fill="#3d3d6a" stroke="#3d3d6a" d="M220.343-402.81l-7.916 7.041 1.797-10.441 6.12 3.4z"/></g><g class="edge"><path fill="none" stroke="#3d3d6a" d="M217.444-438.908l-96.237 42.51"/><path fill="#3d3d6a" stroke="#3d3d6a" d="M122.274-393.043l-10.562.839 7.733-7.242 2.829 6.403z"/></g><g class="edge"><path fill="none" stroke="#3d3d6a" d="M262.905-435.775l53.486 37.388"/><path fill="#3d3d6a" stroke="#3d3d6a" d="M318.705-401.04l6.19 8.598-10.2-2.86 4.01-5.738z"/></g><g class="node"><ellipse fill="none" stroke="#2a7b9a" cx="221.556" cy="-18" rx="28.971" ry="18"/><text text-anchor="middle" x="221.556" y="-13.8" font-family="Times,serif" font-size="14">Grid</text></g><g class="edge"><path fill="none" stroke="#3d3d6a" d="M209.593-143.831l5.799 26.094"/><path fill="#3d3d6a" stroke="#3d3d6a" d="M218.822-118.435l-1.247 10.522-5.586-9.003 6.833-1.519z"/></g><g class="edge"><path fill="none" stroke="#3d3d6a" d="M96.684-144.63L198.982-40.892"/><path fill="#3d3d6a" stroke="#3d3d6a" d="M201.573-43.249l4.53 9.578-9.514-4.663 4.984-4.915z"/></g><g class="edge"><path fill="none" stroke="#3d3d6a" d="M110.718-146.2l76.7 38.89"/><path fill="#3d3d6a" stroke="#3d3d6a" d="M189.27-110.295l7.335 7.644-10.502-1.4 3.166-6.244z"/></g><g class="edge"><path fill="none" stroke="#3d3d6a" d="M221.556-71.831v25.414"/><path fill="#3d3d6a" stroke="#3d3d6a" d="M225.056-46.413l-3.5 10-3.5-10h7z"/></g><g class="edge"><path fill="none" stroke="#3d3d6a" d="M320.664-145.58c-13.232 18.166-35.356 48.225-55.108 73.58-7.625 9.787-16.205 20.403-23.75 29.61"/><path fill="#3d3d6a" stroke="#3d3d6a" d="M244.282-39.89l-9.057 5.497 3.652-9.946 5.405 4.449z"/></g><g class="edge"><path fill="none" stroke="#3d3d6a" d="M312.967-149.294l-61.208 39.703"/><path fill="#3d3d6a" stroke="#3d3d6a" d="M253.52-106.562l-10.294 2.505 6.485-8.378 3.81 5.873z"/></g></g></svg>