<svg width="425pt" height="548pt" viewBox="0 0 425.26 548" xmlns="http://www.w3.org/2000/svg"><g class="graph" transform="translate(4 544)"><path fill="#fff" stroke="transparent" d="M-4 4v-548h425.263V4H-4z"/><g class="node"><ellipse fill="none" stroke="#2a7b9a" cx="314.263" cy="-378" rx="78.751" ry="18"/><text text-anchor="middle" x="314.263" y="-373.8" font-family="Times,serif" font-size="14">TwoPlayer.Game</text></g><g class="node"><ellipse fill="none" stroke="#2a7b9a" cx="314.263" cy="-306" rx="74.137" ry="18"/><text text-anchor="middle" x="314.263" y="-301.8" font-family="Times,serif" font-size="14">MatchupCreator</text></g><g class="edge"><path fill="none" stroke="#3d3d6a" d="M314.263-359.831v25.414"/><path fill="#3d3d6a" stroke="#3d3d6a" d="M317.763-334.413l-3.5 10-3.5-10h7z"/></g><g class="node"><ellipse fill="none" stroke="#2a7b9a" cx="191.263" cy="-162" rx="27" ry="18"/><text text-anchor="middle" x="191.263" y="-157.8" font-family="Times,serif" font-size="14">Env</text></g><g class="edge"><path fill="none" stroke="#3d3d6a" d="M278.034-361.808c-16.41 8.995-34.777 21.662-46.771 37.808-29.54 39.766-37.463 98.685-39.469 133.43"/><path fill="#3d3d6a" stroke="#3d3d6a" d="M195.274-190.028l-3.943 9.834-3.05-10.146 6.993.312z"/></g><g class="node"><ellipse fill="none" stroke="#2a7b9a" cx="233.263" cy="-450" rx="53.309" ry="18"/><text text-anchor="middle" x="233.263" y="-445.8" font-family="Times,serif" font-size="14">TwoPlayer</text></g><g class="edge"><path fill="none" stroke="#3d3d6a" d="M252.459-432.937l34.623 30.777"/><path fill="#3d3d6a" stroke="#3d3d6a" d="M289.493-404.7l5.15 9.26-9.8-4.028 4.65-5.232z"/></g><g class="node"><ellipse fill="none" stroke="#2a7b9a" cx="140.263" cy="-378" rx="76.968" ry="18"/><text text-anchor="middle" x="140.263" y="-373.8" font-family="Times,serif" font-size="14">OnePlayer.Menu</text></g><g class="edge"><path fill="none" stroke="#3d3d6a" d="M211.693-433.3l-40.978 31.724"/><path fill="#3d3d6a" stroke="#3d3d6a" d="M172.737-398.715l-10.05 3.355 5.764-8.89 4.286 5.535z"/></g><g class="node"><ellipse fill="none" stroke="#2a7b9a" cx="77.263" cy="-306" rx="77.026" ry="18"/><text text-anchor="middle" x="77.263" y="-301.8" font-family="Times,serif" font-size="14">OnePlayer.Game</text></g><g class="node"><ellipse fill="none" stroke="#2a7b9a" cx="69.263" cy="-234" rx="55.597" ry="18"/><text text-anchor="middle" x="69.263" y="-229.8" font-family="Times,serif" font-size="14">EnvCreator</text></g><g class="edge"><path fill="none" stroke="#3d3d6a" d="M75.244-287.831l-2.824 25.414"/><path fill="#3d3d6a" stroke="#3d3d6a" d="M75.892-261.966l-4.583 9.553-2.374-10.326 6.957.773z"/></g><g class="edge"><path fill="none" stroke="#3d3d6a" d="M97.988-288.628c11.383 10.076 25.362 23.365 36.275 36.628 16.587 20.16 32.212 45.45 42.892 64.083"/><path fill="#3d3d6a" stroke="#3d3d6a" d="M180.264-189.529l1.862 10.43-7.96-6.992 6.098-3.438z"/></g><g class="node"><ellipse fill="none" stroke="#2a7b9a" cx="263.263" cy="-234" rx="44.101" ry="18"/><text text-anchor="middle" x="263.263" y="-229.8" font-family="Times,serif" font-size="14">Controls</text></g><g class="edge"><path fill="none" stroke="#3d3d6a" d="M117.165-290.554c30.725 11.894 73.08 28.29 104.277 40.365"/><path fill="#3d3d6a" stroke="#3d3d6a" d="M223.088-253.305l8.062 6.874-10.589-.346 2.527-6.528z"/></g><g class="node"><ellipse fill="none" stroke="#2a7b9a" cx="110.263" cy="-450" rx="51.584" ry="18"/><text text-anchor="middle" x="110.263" y="-445.8" font-family="Times,serif" font-size="14">OnePlayer</text></g><g class="edge"><path fill="none" stroke="#3d3d6a" d="M117.833-431.831l10.824 25.978"/><path fill="#3d3d6a" stroke="#3d3d6a" d="M131.975-406.99l.616 10.577-7.077-7.885 6.461-2.692z"/></g><g class="edge"><path fill="none" stroke="#3d3d6a" d="M86.175-434.029c-12.02 9.464-25.363 22.615-31.912 38.029-8.647 20.35-1.435 44.716 7.129 62.96"/><path fill="#3d3d6a" stroke="#3d3d6a" d="M64.518-334.613l1.399 10.502-7.643-7.338 6.244-3.164z"/></g><g class="node"><ellipse fill="none" stroke="#2a7b9a" cx="376.263" cy="-450" rx="33.629" ry="18"/><text text-anchor="middle" x="376.263" y="-445.8" font-family="Times,serif" font-size="14">Menu</text></g><g class="edge"><path fill="none" stroke="#3d3d6a" d="M266.734-292.032l-146.46 43.04"/><path fill="#3d3d6a" stroke="#3d3d6a" d="M121.131-245.595l-10.581-.538 8.607-6.178 1.974 6.716z"/></g><g class="edge"><path fill="none" stroke="#3d3d6a" d="M320.307-287.782c5.254 19.451 10.035 50.363-4.044 71.782-19.456 29.599-58.958 43.048-88.375 49.113"/><path fill="#3d3d6a" stroke="#3d3d6a" d="M228.425-163.427l-10.472-1.608 9.189-5.273 1.283 6.881z"/></g><g class="edge"><path fill="none" stroke="#3d3d6a" d="M301.656-288.202l-20.225 28.553"/><path fill="#3d3d6a" stroke="#3d3d6a" d="M284.185-257.482l-8.636 6.137 2.924-10.183 5.712 4.046z"/></g><g class="node"><ellipse fill="none" stroke="#2a7b9a" cx="390.263" cy="-234" rx="27" ry="18"/><text text-anchor="middle" x="390.263" y="-229.8" font-family="Times,serif" font-size="14">Bot</text></g><g class="edge"><path fill="none" stroke="#3d3d6a" d="M333.05-288.202l33.71 31.936"/><path fill="#3d3d6a" stroke="#3d3d6a" d="M369.409-258.578l4.852 9.419-9.666-4.337 4.814-5.082z"/></g><g class="node"><ellipse fill="none" stroke="#2a7b9a" cx="273.263" cy="-522" rx="31.339" ry="18"/><text text-anchor="middle" x="273.263" y="-517.8" font-family="Times,serif" font-size="14">Main</text></g><g class="edge"><path fill="none" stroke="#3d3d6a" d="M281.414-504.291c4.551 10.402 10.051 23.902 13.849 36.291 6.23 20.326 11.12 43.85 14.377 61.75"/><path fill="#3d3d6a" stroke="#3d3d6a" d="M313.127-406.625l-1.716 10.454-5.178-9.243 6.894-1.211z"/></g><g class="edge"><path fill="none" stroke="#3d3d6a" d="M263.58-504.57l-15.493 27.886"/><path fill="#3d3d6a" stroke="#3d3d6a" d="M251.05-474.81l-7.916 7.041 1.797-10.441 6.12 3.4z"/></g><g class="edge"><path fill="none" stroke="#3d3d6a" d="M248.151-510.908l-96.237 42.51"/><path fill="#3d3d6a" stroke="#3d3d6a" d="M152.98-465.043l-10.56.839 7.732-7.242 2.829 6.403z"/></g><g class="edge"><path fill="none" stroke="#3d3d6a" d="M293.612-507.775l53.486 37.388"/><path fill="#3d3d6a" stroke="#3d3d6a" d="M349.412-473.04l6.191 8.598-10.201-2.86 4.01-5.738z"/></g><g class="node"><ellipse fill="none" stroke="#2a7b9a" cx="164.263" cy="-18" rx="28.971" ry="18"/><text text-anchor="middle" x="164.263" y="-13.8" font-family="Times,serif" font-size="14">Grid</text></g><g class="edge"><path fill="none" stroke="#3d3d6a" d="M77.2-215.956l75.237 171.068"/><path fill="#3d3d6a" stroke="#3d3d6a" d="M155.726-46.102l.823 10.562-7.23-7.744 6.407-2.819z"/></g><g class="edge"><path fill="none" stroke="#3d3d6a" d="M96.036-218.2l66.222 39.082"/><path fill="#3d3d6a" stroke="#3d3d6a" d="M164.152-182.064l6.834 8.097-10.391-2.068 3.557-6.029z"/></g><g class="node"><ellipse fill="none" stroke="#2a7b9a" cx="196.263" cy="-90" rx="34.786" ry="18"/><text text-anchor="middle" x="196.263" y="-85.8" font-family="Times,serif" font-size="14">Bottle</text></g><g class="edge"><path fill="none" stroke="#3d3d6a" d="M84.582-216.63l90.351 102.445"/><path fill="#3d3d6a" stroke="#3d3d6a" d="M177.685-116.357l3.989 9.815-9.24-5.184 5.25-4.63z"/></g><g class="edge"><path fill="none" stroke="#3d3d6a" d="M176.381-146.943c-8.888 10.094-19.35 24.198-24.118 38.943-6.599 20.406-2.794 44.543 2.22 62.681"/><path fill="#3d3d6a" stroke="#3d3d6a" d="M157.858-46.25l-.439 10.586-6.258-8.549 6.697-2.037z"/></g><g class="edge"><path fill="none" stroke="#3d3d6a" d="M192.525-143.831l1.764 25.414"/><path fill="#3d3d6a" stroke="#3d3d6a" d="M197.783-118.632l-2.799 10.219-4.184-9.734 6.983-.485z"/></g><g class="edge"><path fill="none" stroke="#3d3d6a" d="M188.353-72.202L176.049-44.52"/><path fill="#3d3d6a" stroke="#3d3d6a" d="M179.231-43.061l-7.26 7.716.864-10.56 6.396 2.844z"/></g><g class="edge"><path fill="none" stroke="#3d3d6a" d="M377.237-217.743C352.402-187.273 295.791-120.297 240.263-72c-14.665 12.755-32.294 25.425-46.88 35.284"/><path fill="#3d3d6a" stroke="#3d3d6a" d="M195.012-33.596l-10.263 2.63 6.383-8.456 3.88 5.826z"/></g><g class="edge"><path fill="none" stroke="#3d3d6a" d="M367.849-223.752c-5.996 2.629-12.502 5.382-18.586 7.752-42.044 16.38-91.372 32.805-123.583 43.164"/><path fill="#3d3d6a" stroke="#3d3d6a" d="M226.445-169.406l-10.59-.287 8.458-6.38 2.132 6.667z"/></g><g class="edge"><path fill="none" stroke="#3d3d6a" d="M372.012-220.453L224.432-110.91"/><path fill="#3d3d6a" stroke="#3d3d6a" d="M226.456-108.053l-10.116 3.15 5.944-8.77 4.172 5.62z"/></g></g></svg>
