<svg width="1124pt" height="299pt" viewBox="0 0 1123.78 299.23" xmlns="http://www.w3.org/2000/svg"><g class="graph" transform="translate(4 295.23)"><path fill="#fff" stroke="transparent" d="M-4 4v-299.23h1123.776V4H-4z"/><g class="node"><ellipse fill="none" stroke="#2a7b9a" cx="320.523" cy="-189.229" rx="78.751" ry="18"/><text text-anchor="middle" x="320.523" y="-185.029" font-family="Times,serif" font-size="14">TwoPlayer.Game</text></g><g class="node"><ellipse fill="none" stroke="#2a7b9a" cx="995.307" cy="-177.229" rx="27" ry="18"/><text text-anchor="middle" x="995.307" y="-173.029" font-family="Times,serif" font-size="14">Pill</text></g><g class="edge"><path fill="none" stroke="#3d3d6a" d="M377.478-176.625c8.05 3.647 15.692 8.345 21.92 14.396 32.685 31.751 1.578 66.142 36 96 102.245 88.685 169.604 71.83 301.623 42 93.77-21.188 116.092-38.503 195.286-93 15.31-10.536 30.457-24.805 42.061-36.785"/><path fill="#3d3d6a" stroke="#3d3d6a" d="M972.032-156.637l9.416-4.856-4.333 9.668-5.083-4.812z"/></g><g class="node"><ellipse fill="none" stroke="#2a7b9a" cx="512.662" cy="-181.229" rx="74.137" ry="18"/><text text-anchor="middle" x="512.662" y="-177.029" font-family="Times,serif" font-size="14">MatchupCreator</text></g><g class="edge"><path fill="none" stroke="#3d3d6a" d="M398.12-185.998l30.845 1.284"/><path fill="#3d3d6a" stroke="#3d3d6a" d="M429.288-188.204l9.846 3.913-10.137 3.081.29-6.994z"/></g><g class="node"><ellipse fill="none" stroke="#2a7b9a" cx="800.021" cy="-177.229" rx="27" ry="18"/><text text-anchor="middle" x="800.021" y="-173.029" font-family="Times,serif" font-size="14">Env</text></g><g class="edge"><path fill="none" stroke="#3d3d6a" d="M380.212-201.006c17.691-2.974 37.156-5.742 55.187-7.223 133.792-10.99 169.338-6.85 301.622 16 9.096 1.571 18.838 3.677 27.875 5.814"/><path fill="#3d3d6a" stroke="#3d3d6a" d="M765.843-189.787l8.886 5.77-10.545 1.03 1.659-6.8z"/></g><g class="node"><ellipse fill="none" stroke="#2a7b9a" cx="152.243" cy="-143.229" rx="53.309" ry="18"/><text text-anchor="middle" x="152.243" y="-139.029" font-family="Times,serif" font-size="14">TwoPlayer</text></g><g class="edge"><path fill="none" stroke="#3d3d6a" d="M193.84-154.6l66.074-18.061"/><path fill="#3d3d6a" stroke="#3d3d6a" d="M259.23-176.103l10.568.74-8.723 6.013-1.846-6.753z"/></g><g class="node"><ellipse fill="none" stroke="#2a7b9a" cx="320.523" cy="-135.229" rx="76.968" ry="18"/><text text-anchor="middle" x="320.523" y="-131.029" font-family="Times,serif" font-size="14">OnePlayer.Menu</text></g><g class="edge"><path fill="none" stroke="#3d3d6a" d="M205.488-140.698l29.617 1.408"/><path fill="#3d3d6a" stroke="#3d3d6a" d="M235.359-142.782l9.822 3.971-10.155 3.021.333-6.992z"/></g><g class="node"><ellipse fill="none" stroke="#2a7b9a" cx="1087.042" cy="-177.229" rx="28.971" ry="18"/><text text-anchor="middle" x="1087.042" y="-173.029" font-family="Times,serif" font-size="14">Grid</text></g><g class="edge"><path fill="none" stroke="#3d3d6a" d="M1022.334-177.23h25.947"/><path fill="#3d3d6a" stroke="#3d3d6a" d="M1048.292-180.73l10 3.5-10 3.5v-7z"/></g><g class="node"><ellipse fill="none" stroke="#2a7b9a" cx="512.662" cy="-93.229" rx="77.026" ry="18"/><text text-anchor="middle" x="512.662" y="-89.029" font-family="Times,serif" font-size="14">OnePlayer.Game</text></g><g class="node"><ellipse fill="none" stroke="#2a7b9a" cx="681.473" cy="-51.229" rx="55.597" ry="18"/><text text-anchor="middle" x="681.473" y="-47.029" font-family="Times,serif" font-size="14">EnvCreator</text></g><g class="edge"><path fill="none" stroke="#3d3d6a" d="M565.611-80.055l61.822 15.38"/><path fill="#3d3d6a" stroke="#3d3d6a" d="M628.355-68.052l8.86 5.811-10.55.982 1.69-6.793z"/></g><g class="edge"><path fill="none" stroke="#3d3d6a" d="M587.638-88.84c45.222-.225 102.882-5.74 149.383-27.39 9.697-4.513 27.728-22.448 42.023-37.712"/><path fill="#3d3d6a" stroke="#3d3d6a" d="M776.758-156.625l9.357-4.97-4.215 9.72-5.142-4.75z"/></g><g class="node"><ellipse fill="none" stroke="#2a7b9a" cx="681.473" cy="-143.229" rx="44.101" ry="18"/><text text-anchor="middle" x="681.473" y="-139.029" font-family="Times,serif" font-size="14">Controls</text></g><g class="edge"><path fill="none" stroke="#3d3d6a" d="M560.585-107.423l75.279-22.297"/><path fill="#3d3d6a" stroke="#3d3d6a" d="M634.932-133.095l10.582.516-8.594 6.196-1.988-6.712z"/></g><g class="node"><ellipse fill="none" stroke="#2a7b9a" cx="152.243" cy="-89.229" rx="51.584" ry="18"/><text text-anchor="middle" x="152.243" y="-85.029" font-family="Times,serif" font-size="14">OnePlayer</text></g><g class="edge"><path fill="none" stroke="#3d3d6a" d="M192.98-100.365c20.335-5.558 45.329-12.39 67.786-18.53"/><path fill="#3d3d6a" stroke="#3d3d6a" d="M259.977-122.307l10.57.74-8.724 6.012-1.846-6.752z"/></g><g class="edge"><path fill="none" stroke="#3d3d6a" d="M204.266-89.806l221.149-2.455"/><path fill="#3d3d6a" stroke="#3d3d6a" d="M425.385-95.76l10.038 3.388-9.96 3.61-.078-6.999z"/></g><g class="node"><ellipse fill="none" stroke="#2a7b9a" cx="152.243" cy="-35.229" rx="33.629" ry="18"/><text text-anchor="middle" x="152.243" y="-31.029" font-family="Times,serif" font-size="14">Menu</text></g><g class="edge"><path fill="none" stroke="#3d3d6a" d="M535.078-163.966l116.67 89.845"/><path fill="#3d3d6a" stroke="#3d3d6a" d="M653.979-76.82l5.787 8.875-10.058-3.329 4.27-5.546z"/></g><g class="edge"><path fill="none" stroke="#3d3d6a" d="M587.038-180.194l175.711 2.446"/><path fill="#3d3d6a" stroke="#3d3d6a" d="M762.84-181.247l9.95 3.639-10.048 3.36.098-7z"/></g><g class="edge"><path fill="none" stroke="#3d3d6a" d="M567.47-168.892l65.204 14.678"/><path fill="#3d3d6a" stroke="#3d3d6a" d="M633.707-157.57l8.987 5.612-10.525 1.218 1.538-6.83z"/></g><g class="node"><ellipse fill="none" stroke="#2a7b9a" cx="681.473" cy="-273.229" rx="27" ry="18"/><text text-anchor="middle" x="681.473" y="-269.029" font-family="Times,serif" font-size="14">Bot</text></g><g class="edge"><path fill="none" stroke="#3d3d6a" d="M543.232-197.89l108.075-58.9"/><path fill="#3d3d6a" stroke="#3d3d6a" d="M649.758-259.93l10.455-1.713-7.106 7.859-3.35-6.147z"/></g><g class="node"><ellipse fill="none" stroke="#2a7b9a" cx="31.419" cy="-116.229" rx="31.339" ry="18"/><text text-anchor="middle" x="31.419" y="-112.029" font-family="Times,serif" font-size="14">Main</text></g><g class="edge"><path fill="none" stroke="#3d3d6a" d="M46.034-132.296c12.622-12.705 32.058-29.637 52.805-37.933 42.33-16.927 92.745-22.285 134.795-23.144"/><path fill="#3d3d6a" stroke="#3d3d6a" d="M233.813-196.875l10.042 3.378-9.956 3.622-.086-7z"/></g><g class="edge"><path fill="none" stroke="#3d3d6a" d="M60.976-122.834l36.496-8.156"/><path fill="#3d3d6a" stroke="#3d3d6a" d="M96.918-134.452l10.523 1.235-8.996 5.596-1.527-6.831z"/></g><g class="edge"><path fill="none" stroke="#3d3d6a" d="M60.976-109.624l37.63 8.409"/><path fill="#3d3d6a" stroke="#3d3d6a" d="M99.374-104.63l8.996 5.596-10.523 1.235 1.527-6.831z"/></g><g class="edge"><path fill="none" stroke="#3d3d6a" d="M48.413-100.975C61.616-89.539 80.678-73.914 98.84-62.229c5.811 3.739 12.208 7.358 18.494 10.666"/><path fill="#3d3d6a" stroke="#3d3d6a" d="M119.056-54.613l7.326 7.654-10.5-1.415 3.174-6.24z"/></g><g class="edge"><path fill="none" stroke="#3d3d6a" d="M717.766-64.883c29.51-11.176 72.18-27.506 109.255-42.346 47.593-19.05 102.345-42.023 136.135-56.325"/><path fill="#3d3d6a" stroke="#3d3d6a" d="M961.95-166.844l10.572-.68-7.841 7.125-2.732-6.445z"/></g><g class="edge"><path fill="none" stroke="#3d3d6a" d="M730.6-59.64c67.559-12.577 192.093-39.419 291.707-81.59 12.027-5.09 24.7-11.809 35.613-18.06"/><path fill="#3d3d6a" stroke="#3d3d6a" d="M1056.223-162.353l10.398-2.034-6.86 8.074-3.538-6.04z"/></g><g class="edge"><path fill="none" stroke="#3d3d6a" d="M713.747-66.05c8.198-4.73 16.573-10.501 23.274-17.18 22.57-22.492 17.656-35.945 36-62 2.028-2.88 4.257-5.817 6.536-8.686"/><path fill="#3d3d6a" stroke="#3d3d6a" d="M776.93-156.231l9.064-5.485-3.665 9.94-5.4-4.455z"/></g><g class="node"><ellipse fill="none" stroke="#2a7b9a" cx="897.664" cy="-215.229" rx="34.786" ry="18"/><text text-anchor="middle" x="897.664" y="-211.029" font-family="Times,serif" font-size="14">Bottle</text></g><g class="edge"><path fill="none" stroke="#3d3d6a" d="M707.665-67.313c9.338-5.844 19.886-12.573 29.356-18.916 40.78-27.316 51.865-33.1 90-64 16.237-13.156 33.516-29.019 46.92-41.78"/><path fill="#3d3d6a" stroke="#3d3d6a" d="M871.712-194.72l9.637-4.4-4.79 9.45-4.847-5.05z"/></g><g class="edge"><path fill="none" stroke="#3d3d6a" d="M827.175-177.23h130.682"/><path fill="#3d3d6a" stroke="#3d3d6a" d="M958.07-180.73l10 3.5-10 3.5v-7z"/></g><g class="edge"><path fill="none" stroke="#3d3d6a" d="M824.556-169.193c41.176 12.361 126.66 33.195 197.75 18.964 11.22-2.246 22.926-6.481 33.249-10.943"/><path fill="#3d3d6a" stroke="#3d3d6a" d="M1054.416-164.499l10.55-.962-7.648 7.332-2.902-6.37z"/></g><g class="edge"><path fill="none" stroke="#3d3d6a" d="M823.658-186.428l36.515-14.21"/><path fill="#3d3d6a" stroke="#3d3d6a" d="M859.148-203.995l10.589-.366-8.05 6.889-2.539-6.523z"/></g><g class="edge"><path fill="none" stroke="#3d3d6a" d="M925.645-204.34l36.69 14.28"/><path fill="#3d3d6a" stroke="#3d3d6a" d="M963.89-193.211l8.05 6.888-10.588-.365 2.539-6.523z"/></g><g class="edge"><path fill="none" stroke="#3d3d6a" d="M932.52-215c25.255.85 60.046 3.443 89.787 10.77 11.02 2.716 22.598 7.034 32.866 11.427"/><path fill="#3d3d6a" stroke="#3d3d6a" d="M1056.848-195.888l7.707 7.27-10.559-.878 2.852-6.392z"/></g><g class="edge"><path fill="none" stroke="#3d3d6a" d="M708.389-275.543c47.804-2.928 149.484-3.75 223.918 33.314 18.463 9.193 34.553 26.044 45.851 40.285"/><path fill="#3d3d6a" stroke="#3d3d6a" d="M980.977-204.02l3.261 10.08-8.835-5.846 5.574-4.234z"/></g><g class="edge"><path fill="none" stroke="#3d3d6a" d="M707.824-277.61c18.245-2.804 43.123-6.179 65.197-7.62 71.093-4.639 91.58-4.172 159.286 18 48.653 15.935 98.765 48.63 128.31 69.917"/><path fill="#3d3d6a" stroke="#3d3d6a" d="M1062.74-200.097l6.005 8.728-10.138-3.078 4.132-5.65z"/></g><g class="edge"><path fill="none" stroke="#3d3d6a" d="M703.168-262.503c10.634 5.691 23.374 13.175 33.853 21.274 15.529 12 31.018 27.673 42.752 40.505"/><path fill="#3d3d6a" stroke="#3d3d6a" d="M782.487-202.94l4.074 9.78-9.284-5.105 5.21-4.675z"/></g><g class="edge"><path fill="none" stroke="#3d3d6a" d="M706.293-265.996c18.39 5.314 44.08 12.644 66.728 18.767 27.74 7.499 59.071 15.54 83.38 21.686"/><path fill="#3d3d6a" stroke="#3d3d6a" d="M857.519-228.87l8.84 5.838-10.552.949 1.712-6.788z"/></g></g></svg>
