<?xml version="1.0" encoding="UTF-8" standalone="no"?>
<!DOCTYPE svg PUBLIC "-//W3C//DTD SVG 1.1//EN"
 "http://www.w3.org/Graphics/SVG/1.1/DTD/svg11.dtd">
<!-- Generated by graphviz version 2.40.1 (20161225.0304)
 -->
<!-- Title: %0 Pages: 1 -->
<svg width="1124pt" height="299pt"
 viewBox="0.00 0.00 1123.78 299.23" xmlns="http://www.w3.org/2000/svg" xmlns:xlink="http://www.w3.org/1999/xlink">
<g id="graph0" class="graph" transform="scale(1 1) rotate(0) translate(4 295.2292)">
<title>%0</title>
<polygon fill="#ffffff" stroke="transparent" points="-4,4 -4,-295.2292 1119.7765,-295.2292 1119.7765,4 -4,4"/>
<!-- 2 -->
<g id="node1" class="node">
<title>2</title>
<ellipse fill="none" stroke="#2a7b9a" cx="320.5233" cy="-189.2292" rx="78.7514" ry="18"/>
<text text-anchor="middle" x="320.5233" y="-185.0292" font-family="Times,serif" font-size="14.00" fill="#000000">TwoPlayer.Game</text>
</g>
<!-- 6 -->
<g id="node3" class="node">
<title>6</title>
<ellipse fill="none" stroke="#2a7b9a" cx="995.3069" cy="-177.2292" rx="27" ry="18"/>
<text text-anchor="middle" x="995.3069" y="-173.0292" font-family="Times,serif" font-size="14.00" fill="#000000">Pill</text>
</g>
<!-- 2&#45;&gt;6 -->
<g id="edge32" class="edge">
<title>2&#45;&gt;6</title>
<path fill="none" stroke="#3d3d6a" d="M377.4776,-176.6246C385.528,-172.9781 393.1699,-168.2803 399.3988,-162.2292 432.0835,-130.4777 400.9758,-96.0871 435.3988,-66.2292 537.6434,22.456 605.0016,5.6014 737.0211,-24.2292 830.7904,-45.4168 853.1133,-62.7319 932.3069,-117.2292 947.6172,-127.765 962.7644,-142.0343 974.3681,-154.014"/>
<polygon fill="#3d3d6a" stroke="#3d3d6a" points="972.0315,-156.6369 981.4478,-161.4934 977.1153,-151.8249 972.0315,-156.6369"/>
</g>
<!-- 11 -->
<g id="node8" class="node">
<title>11</title>
<ellipse fill="none" stroke="#2a7b9a" cx="512.6617" cy="-181.2292" rx="74.1374" ry="18"/>
<text text-anchor="middle" x="512.6617" y="-177.0292" font-family="Times,serif" font-size="14.00" fill="#000000">MatchupCreator</text>
</g>
<!-- 2&#45;&gt;11 -->
<g id="edge31" class="edge">
<title>2&#45;&gt;11</title>
<path fill="none" stroke="#3d3d6a" d="M398.1195,-185.9983C408.2743,-185.5755 418.7152,-185.1408 428.965,-184.714"/>
<polygon fill="#3d3d6a" stroke="#3d3d6a" points="429.2878,-188.2037 439.1335,-184.2906 428.9965,-181.2098 429.2878,-188.2037"/>
</g>
<!-- 15 -->
<g id="node12" class="node">
<title>15</title>
<ellipse fill="none" stroke="#2a7b9a" cx="800.0211" cy="-177.2292" rx="27" ry="18"/>
<text text-anchor="middle" x="800.0211" y="-173.0292" font-family="Times,serif" font-size="14.00" fill="#000000">Env</text>
</g>
<!-- 2&#45;&gt;15 -->
<g id="edge30" class="edge">
<title>2&#45;&gt;15</title>
<path fill="none" stroke="#3d3d6a" d="M380.2117,-201.0065C397.9031,-203.9803 417.3675,-206.7481 435.3988,-208.2292 569.1911,-219.2189 604.7372,-215.0789 737.0211,-192.2292 746.1173,-190.658 755.8588,-188.5517 764.8962,-186.4153"/>
<polygon fill="#3d3d6a" stroke="#3d3d6a" points="765.8427,-189.7871 774.7286,-184.0172 764.184,-182.9865 765.8427,-189.7871"/>
</g>
<!-- 3 -->
<g id="node2" class="node">
<title>3</title>
<ellipse fill="none" stroke="#2a7b9a" cx="152.2433" cy="-143.2292" rx="53.309" ry="18"/>
<text text-anchor="middle" x="152.2433" y="-139.0292" font-family="Times,serif" font-size="14.00" fill="#000000">TwoPlayer</text>
</g>
<!-- 3&#45;&gt;2 -->
<g id="edge29" class="edge">
<title>3&#45;&gt;2</title>
<path fill="none" stroke="#3d3d6a" d="M193.8406,-154.6C213.7596,-160.0449 237.9954,-166.6698 259.9143,-172.6615"/>
<polygon fill="#3d3d6a" stroke="#3d3d6a" points="259.2294,-176.1026 269.7984,-175.3633 261.0752,-169.3503 259.2294,-176.1026"/>
</g>
<!-- 7 -->
<g id="node4" class="node">
<title>7</title>
<ellipse fill="none" stroke="#2a7b9a" cx="320.5233" cy="-135.2292" rx="76.968" ry="18"/>
<text text-anchor="middle" x="320.5233" y="-131.0292" font-family="Times,serif" font-size="14.00" fill="#000000">OnePlayer.Menu</text>
</g>
<!-- 3&#45;&gt;7 -->
<g id="edge28" class="edge">
<title>3&#45;&gt;7</title>
<path fill="none" stroke="#3d3d6a" d="M205.4881,-140.6979C214.9487,-140.2482 225.0143,-139.7696 235.1046,-139.29"/>
<polygon fill="#3d3d6a" stroke="#3d3d6a" points="235.359,-142.7819 245.1815,-138.8109 235.0265,-135.7898 235.359,-142.7819"/>
</g>
<!-- 13 -->
<g id="node10" class="node">
<title>13</title>
<ellipse fill="none" stroke="#2a7b9a" cx="1087.0417" cy="-177.2292" rx="28.9715" ry="18"/>
<text text-anchor="middle" x="1087.0417" y="-173.0292" font-family="Times,serif" font-size="14.00" fill="#000000">Grid</text>
</g>
<!-- 6&#45;&gt;13 -->
<g id="edge27" class="edge">
<title>6&#45;&gt;13</title>
<path fill="none" stroke="#3d3d6a" d="M1022.3342,-177.2292C1030.4633,-177.2292 1039.548,-177.2292 1048.2805,-177.2292"/>
<polygon fill="#3d3d6a" stroke="#3d3d6a" points="1048.2915,-180.7293 1058.2915,-177.2292 1048.2915,-173.7293 1048.2915,-180.7293"/>
</g>
<!-- 8 -->
<g id="node5" class="node">
<title>8</title>
<ellipse fill="none" stroke="#2a7b9a" cx="512.6617" cy="-93.2292" rx="77.0265" ry="18"/>
<text text-anchor="middle" x="512.6617" y="-89.0292" font-family="Times,serif" font-size="14.00" fill="#000000">OnePlayer.Game</text>
</g>
<!-- 14 -->
<g id="node11" class="node">
<title>14</title>
<ellipse fill="none" stroke="#2a7b9a" cx="681.4728" cy="-51.2292" rx="55.5966" ry="18"/>
<text text-anchor="middle" x="681.4728" y="-47.0292" font-family="Times,serif" font-size="14.00" fill="#000000">EnvCreator</text>
</g>
<!-- 8&#45;&gt;14 -->
<g id="edge26" class="edge">
<title>8&#45;&gt;14</title>
<path fill="none" stroke="#3d3d6a" d="M565.6114,-80.0553C585.2983,-75.1573 607.6493,-69.5964 627.4325,-64.6743"/>
<polygon fill="#3d3d6a" stroke="#3d3d6a" points="628.3554,-68.0515 637.2145,-62.2406 626.6653,-61.2586 628.3554,-68.0515"/>
</g>
<!-- 8&#45;&gt;15 -->
<g id="edge25" class="edge">
<title>8&#45;&gt;15</title>
<path fill="none" stroke="#3d3d6a" d="M587.6381,-88.8405C632.8599,-89.065 690.5199,-94.5803 737.0211,-116.2292 746.7175,-120.7434 764.7485,-138.6783 779.0441,-153.9418"/>
<polygon fill="#3d3d6a" stroke="#3d3d6a" points="776.7582,-156.6254 786.1153,-161.595 781.8996,-151.8749 776.7582,-156.6254"/>
</g>
<!-- 18 -->
<g id="node13" class="node">
<title>18</title>
<ellipse fill="none" stroke="#2a7b9a" cx="681.4728" cy="-143.2292" rx="44.1006" ry="18"/>
<text text-anchor="middle" x="681.4728" y="-139.0292" font-family="Times,serif" font-size="14.00" fill="#000000">Controls</text>
</g>
<!-- 8&#45;&gt;18 -->
<g id="edge24" class="edge">
<title>8&#45;&gt;18</title>
<path fill="none" stroke="#3d3d6a" d="M560.5847,-107.4234C584.2105,-114.4211 612.5586,-122.8175 635.8636,-129.7202"/>
<polygon fill="#3d3d6a" stroke="#3d3d6a" points="634.9319,-133.0945 645.5141,-132.5786 636.9199,-126.3827 634.9319,-133.0945"/>
</g>
<!-- 9 -->
<g id="node6" class="node">
<title>9</title>
<ellipse fill="none" stroke="#2a7b9a" cx="152.2433" cy="-89.2292" rx="51.5843" ry="18"/>
<text text-anchor="middle" x="152.2433" y="-85.0292" font-family="Times,serif" font-size="14.00" fill="#000000">OnePlayer</text>
</g>
<!-- 9&#45;&gt;7 -->
<g id="edge23" class="edge">
<title>9&#45;&gt;7</title>
<path fill="none" stroke="#3d3d6a" d="M192.9792,-100.3645C213.315,-105.9234 238.3089,-112.7555 260.7663,-118.8944"/>
<polygon fill="#3d3d6a" stroke="#3d3d6a" points="259.9772,-122.307 270.5462,-121.5677 261.823,-115.5547 259.9772,-122.307"/>
</g>
<!-- 9&#45;&gt;8 -->
<g id="edge22" class="edge">
<title>9&#45;&gt;8</title>
<path fill="none" stroke="#3d3d6a" d="M204.2663,-89.8065C262.0517,-90.4478 356.2961,-91.4938 425.415,-92.2609"/>
<polygon fill="#3d3d6a" stroke="#3d3d6a" points="425.385,-95.7607 435.4233,-92.372 425.4628,-88.7611 425.385,-95.7607"/>
</g>
<!-- 10 -->
<g id="node7" class="node">
<title>10</title>
<ellipse fill="none" stroke="#2a7b9a" cx="152.2433" cy="-35.2292" rx="33.6286" ry="18"/>
<text text-anchor="middle" x="152.2433" y="-31.0292" font-family="Times,serif" font-size="14.00" fill="#000000">Menu</text>
</g>
<!-- 11&#45;&gt;14 -->
<g id="edge21" class="edge">
<title>11&#45;&gt;14</title>
<path fill="none" stroke="#3d3d6a" d="M535.0785,-163.9662C565.0916,-140.8534 618.4095,-99.7937 651.7473,-74.1206"/>
<polygon fill="#3d3d6a" stroke="#3d3d6a" points="653.9787,-76.8198 659.7661,-67.9453 649.7077,-71.2737 653.9787,-76.8198"/>
</g>
<!-- 11&#45;&gt;15 -->
<g id="edge20" class="edge">
<title>11&#45;&gt;15</title>
<path fill="none" stroke="#3d3d6a" d="M587.0376,-180.1939C643.3846,-179.4095 718.4312,-178.3649 762.749,-177.748"/>
<polygon fill="#3d3d6a" stroke="#3d3d6a" points="762.8395,-181.2472 772.7898,-177.6082 762.742,-174.2478 762.8395,-181.2472"/>
</g>
<!-- 11&#45;&gt;18 -->
<g id="edge19" class="edge">
<title>11&#45;&gt;18</title>
<path fill="none" stroke="#3d3d6a" d="M567.4698,-168.8917C588.4713,-164.1642 612.2718,-158.8066 632.6738,-154.214"/>
<polygon fill="#3d3d6a" stroke="#3d3d6a" points="633.7065,-157.5692 642.6937,-151.9585 632.1691,-150.7401 633.7065,-157.5692"/>
</g>
<!-- 21 -->
<g id="node15" class="node">
<title>21</title>
<ellipse fill="none" stroke="#2a7b9a" cx="681.4728" cy="-273.2292" rx="27" ry="18"/>
<text text-anchor="middle" x="681.4728" y="-269.0292" font-family="Times,serif" font-size="14.00" fill="#000000">Bot</text>
</g>
<!-- 11&#45;&gt;21 -->
<g id="edge18" class="edge">
<title>11&#45;&gt;21</title>
<path fill="none" stroke="#3d3d6a" d="M543.2321,-197.8897C573.8857,-214.5955 620.7979,-240.1621 651.3073,-256.7893"/>
<polygon fill="#3d3d6a" stroke="#3d3d6a" points="649.7575,-259.9307 660.213,-261.6428 653.1072,-253.7842 649.7575,-259.9307"/>
</g>
<!-- 12 -->
<g id="node9" class="node">
<title>12</title>
<ellipse fill="none" stroke="#2a7b9a" cx="31.4194" cy="-116.2292" rx="31.339" ry="18"/>
<text text-anchor="middle" x="31.4194" y="-112.0292" font-family="Times,serif" font-size="14.00" fill="#000000">Main</text>
</g>
<!-- 12&#45;&gt;2 -->
<g id="edge17" class="edge">
<title>12&#45;&gt;2</title>
<path fill="none" stroke="#3d3d6a" d="M46.0343,-132.296C58.6564,-145.0007 78.0916,-161.9326 98.8388,-170.2292 141.1682,-187.1562 191.5839,-192.5142 233.6338,-193.3726"/>
<polygon fill="#3d3d6a" stroke="#3d3d6a" points="233.8134,-196.875 243.8553,-193.4971 233.8987,-189.8755 233.8134,-196.875"/>
</g>
<!-- 12&#45;&gt;3 -->
<g id="edge16" class="edge">
<title>12&#45;&gt;3</title>
<path fill="none" stroke="#3d3d6a" d="M60.9763,-122.8341C72.0015,-125.2979 84.9009,-128.1804 97.4717,-130.9896"/>
<polygon fill="#3d3d6a" stroke="#3d3d6a" points="96.9181,-134.4521 107.4407,-133.2173 98.4447,-127.6206 96.9181,-134.4521"/>
</g>
<!-- 12&#45;&gt;9 -->
<g id="edge15" class="edge">
<title>12&#45;&gt;9</title>
<path fill="none" stroke="#3d3d6a" d="M60.9763,-109.6242C72.3333,-107.0863 85.6791,-104.104 98.6059,-101.2153"/>
<polygon fill="#3d3d6a" stroke="#3d3d6a" points="99.3735,-104.6302 108.3695,-99.0335 97.8468,-97.7987 99.3735,-104.6302"/>
</g>
<!-- 12&#45;&gt;10 -->
<g id="edge14" class="edge">
<title>12&#45;&gt;10</title>
<path fill="none" stroke="#3d3d6a" d="M48.4132,-100.9747C61.6163,-89.5389 80.6781,-73.9135 98.8388,-62.2292 104.6504,-58.4901 111.0472,-54.8713 117.3329,-51.5627"/>
<polygon fill="#3d3d6a" stroke="#3d3d6a" points="119.0557,-54.6132 126.3815,-46.9592 115.8816,-48.3742 119.0557,-54.6132"/>
</g>
<!-- 14&#45;&gt;6 -->
<g id="edge13" class="edge">
<title>14&#45;&gt;6</title>
<path fill="none" stroke="#3d3d6a" d="M717.7661,-64.883C747.2758,-76.0593 789.9458,-92.389 827.0211,-107.2292 874.6142,-126.2793 929.3662,-149.2523 963.1556,-163.5536"/>
<polygon fill="#3d3d6a" stroke="#3d3d6a" points="961.9491,-166.8436 972.5221,-167.5232 964.6806,-160.3985 961.9491,-166.8436"/>
</g>
<!-- 14&#45;&gt;13 -->
<g id="edge12" class="edge">
<title>14&#45;&gt;13</title>
<path fill="none" stroke="#3d3d6a" d="M730.6007,-59.6401C798.1587,-72.2173 922.6931,-99.0586 1022.3069,-141.2292 1034.3341,-146.3208 1047.0071,-153.0386 1057.9205,-159.2909"/>
<polygon fill="#3d3d6a" stroke="#3d3d6a" points="1056.2233,-162.353 1066.621,-164.3874 1059.7614,-156.3129 1056.2233,-162.353"/>
</g>
<!-- 14&#45;&gt;15 -->
<g id="edge11" class="edge">
<title>14&#45;&gt;15</title>
<path fill="none" stroke="#3d3d6a" d="M713.7468,-66.0498C721.9454,-70.7801 730.3203,-76.5513 737.0211,-83.2292 759.5908,-105.7217 754.677,-119.1753 773.0211,-145.2292 775.0494,-148.1099 777.2775,-151.0469 779.557,-153.9156"/>
<polygon fill="#3d3d6a" stroke="#3d3d6a" points="776.9298,-156.231 785.9944,-161.7159 782.3288,-151.7754 776.9298,-156.231"/>
</g>
<!-- 20 -->
<g id="node14" class="node">
<title>20</title>
<ellipse fill="none" stroke="#2a7b9a" cx="897.664" cy="-215.2292" rx="34.7864" ry="18"/>
<text text-anchor="middle" x="897.664" y="-211.0292" font-family="Times,serif" font-size="14.00" fill="#000000">Bottle</text>
</g>
<!-- 14&#45;&gt;20 -->
<g id="edge10" class="edge">
<title>14&#45;&gt;20</title>
<path fill="none" stroke="#3d3d6a" d="M707.665,-67.313C717.0033,-73.1574 727.5509,-79.8856 737.0211,-86.2292 777.8004,-113.5447 788.8863,-119.329 827.0211,-150.2292 843.2577,-163.3855 860.5367,-179.2479 873.9416,-192.0092"/>
<polygon fill="#3d3d6a" stroke="#3d3d6a" points="871.7116,-194.7201 881.3494,-199.1205 876.5593,-189.6703 871.7116,-194.7201"/>
</g>
<!-- 15&#45;&gt;6 -->
<g id="edge9" class="edge">
<title>15&#45;&gt;6</title>
<path fill="none" stroke="#3d3d6a" d="M827.1748,-177.2292C861.1826,-177.2292 919.6174,-177.2292 957.8569,-177.2292"/>
<polygon fill="#3d3d6a" stroke="#3d3d6a" points="958.0698,-180.7293 968.0698,-177.2292 958.0698,-173.7293 958.0698,-180.7293"/>
</g>
<!-- 15&#45;&gt;13 -->
<g id="edge8" class="edge">
<title>15&#45;&gt;13</title>
<path fill="none" stroke="#3d3d6a" d="M824.5563,-169.1929C865.7317,-156.8318 951.2157,-135.9977 1022.3069,-150.2292 1033.5269,-152.4753 1045.2322,-156.7103 1055.5546,-161.1716"/>
<polygon fill="#3d3d6a" stroke="#3d3d6a" points="1054.4157,-164.4988 1064.9668,-165.4606 1057.3184,-158.129 1054.4157,-164.4988"/>
</g>
<!-- 15&#45;&gt;20 -->
<g id="edge7" class="edge">
<title>15&#45;&gt;20</title>
<path fill="none" stroke="#3d3d6a" d="M823.6577,-186.4279C834.6134,-190.6916 847.8991,-195.862 860.1735,-200.6389"/>
<polygon fill="#3d3d6a" stroke="#3d3d6a" points="859.148,-203.9954 869.7366,-204.3606 861.6868,-197.472 859.148,-203.9954"/>
</g>
<!-- 20&#45;&gt;6 -->
<g id="edge6" class="edge">
<title>20&#45;&gt;6</title>
<path fill="none" stroke="#3d3d6a" d="M925.6446,-204.3399C937.0915,-199.8851 950.4202,-194.6979 962.3358,-190.0606"/>
<polygon fill="#3d3d6a" stroke="#3d3d6a" points="963.8906,-193.2113 971.9403,-186.3228 961.3518,-186.6879 963.8906,-193.2113"/>
</g>
<!-- 20&#45;&gt;13 -->
<g id="edge5" class="edge">
<title>20&#45;&gt;13</title>
<path fill="none" stroke="#3d3d6a" d="M932.5191,-215.0005C957.7752,-214.1499 992.5663,-211.5572 1022.3069,-204.2292 1033.3276,-201.5137 1044.905,-197.1962 1055.1726,-192.8033"/>
<polygon fill="#3d3d6a" stroke="#3d3d6a" points="1056.8479,-195.8885 1064.5546,-188.6182 1053.9962,-189.4957 1056.8479,-195.8885"/>
</g>
<!-- 21&#45;&gt;6 -->
<g id="edge4" class="edge">
<title>21&#45;&gt;6</title>
<path fill="none" stroke="#3d3d6a" d="M708.3889,-275.5433C756.1926,-278.4709 857.8734,-279.2921 932.3069,-242.2292 950.7699,-233.0358 966.8603,-216.185 978.1581,-201.9445"/>
<polygon fill="#3d3d6a" stroke="#3d3d6a" points="980.9771,-204.0196 984.2381,-193.9391 975.4026,-199.7858 980.9771,-204.0196"/>
</g>
<!-- 21&#45;&gt;13 -->
<g id="edge3" class="edge">
<title>21&#45;&gt;13</title>
<path fill="none" stroke="#3d3d6a" d="M707.8239,-277.6093C726.0687,-280.4141 750.947,-283.7886 773.0211,-285.2292 844.1142,-289.8687 864.601,-289.4025 932.3069,-267.2292 980.9604,-251.2954 1031.0723,-218.5993 1060.6179,-197.3126"/>
<polygon fill="#3d3d6a" stroke="#3d3d6a" points="1062.7391,-200.0974 1068.7451,-191.3694 1058.6071,-194.4471 1062.7391,-200.0974"/>
</g>
<!-- 21&#45;&gt;15 -->
<g id="edge2" class="edge">
<title>21&#45;&gt;15</title>
<path fill="none" stroke="#3d3d6a" d="M703.1678,-262.5028C713.8021,-256.812 726.5417,-249.328 737.0211,-241.2292 752.5496,-229.2282 768.0388,-213.5558 779.773,-200.7239"/>
<polygon fill="#3d3d6a" stroke="#3d3d6a" points="782.4871,-202.9399 786.5608,-193.1595 777.2771,-198.2648 782.4871,-202.9399"/>
</g>
<!-- 21&#45;&gt;20 -->
<g id="edge1" class="edge">
<title>21&#45;&gt;20</title>
<path fill="none" stroke="#3d3d6a" d="M706.2931,-265.9958C724.6821,-260.6816 750.3723,-253.3516 773.0211,-247.2292 800.7617,-239.7303 832.0921,-231.6886 856.4018,-225.5426"/>
<polygon fill="#3d3d6a" stroke="#3d3d6a" points="857.5188,-228.8706 866.3595,-223.0318 855.8072,-222.083 857.5188,-228.8706"/>
</g>
</g>
</svg>
